# xmcd
#
# Track frame offsets: 
#        150
#        7726
#        12718
#        25790
#        31506
#        46905
#        53729
#        64297
#        71610
#        75748
#        91100
#        102361
#        116957
#
# Disc length: 1674 seconds
#
# Revision: 0
# Processed by: cddbd v1.5.2PL0 Copyright (c) Steve Scherf et al.
# Submitted via: ExactAudioCopy v0.95b4
#
DISCID=9b06880d
DTITLE=Original Cast - Hillbilly Antigone
DYEAR=2005
DGENRE=
TTITLE0=The Feudin' Song
TTITLE1=A Burnin' Fire
TTITLE2=God's Plan
TTITLE3=Mama Virginia
TTITLE4=The Battle of Badd Mountain
TTITLE5=Forgive Me Lord
TTITLE6=I Buried My Brother
TTITLE7=A Horse Called Disaster (pt.1)
TTITLE8=A Horse Called Disaster (pt.2)
TTITLE9=The Ballad of a Snake Bitten Bride
TTITLE10=These Hills Are Cryin'
TTITLE11=Spring Rain
TTITLE12=Bad Luck
EXTD=
EXTT0=
EXTT1=
EXTT2=
EXTT3=
EXTT4=
EXTT5=
EXTT6=
EXTT7=
EXTT8=
EXTT9=
EXTT10=
EXTT11=
EXTT12=
PLAYORDER=
